<?xml version="1.0" encoding="UTF-8" standalone="no"?>
<!-- Uploaded to: SVG Repo, www.svgrepo.com, Generator: SVG Repo Mixer Tools -->

<svg
   width="800px"
   height="800px"
   viewBox="0 0 24 24"
   fill="none"
   version="1.1"
   id="svg1"
   sodipodi:docname="bookmark-filled.svg"
   inkscape:version="1.4.3 (0d15f75042, 2025-12-25)"
   xmlns:inkscape="http://www.inkscape.org/namespaces/inkscape"
   xmlns:sodipodi="http://sodipodi.sourceforge.net/DTD/sodipodi-0.dtd"
   xmlns="http://www.w3.org/2000/svg"
   xmlns:svg="http://www.w3.org/2000/svg">
  <defs
     id="defs1" />
  <sodipodi:namedview
     id="namedview1"
     pagecolor="#ffffff"
     bordercolor="#000000"
     borderopacity="0.25"
     inkscape:showpageshadow="2"
     inkscape:pageopacity="0.0"
     inkscape:pagecheckerboard="0"
     inkscape:deskcolor="#d1d1d1"
     inkscape:zoom="0.59625"
     inkscape:cx="399.16143"
     inkscape:cy="478.826"
     inkscape:window-width="1280"
     inkscape:window-height="728"
     inkscape:window-x="0"
     inkscape:window-y="0"
     inkscape:window-maximized="1"
     inkscape:current-layer="svg1" />
  <path
     fill-rule="evenodd"
     clip-rule="evenodd"
     d="M6.75 6L7.5 5.25H16.5L17.25 6V19.3162L12 16.2051L6.75 19.3162V6ZM8.25 6.75V16.6838L12 14.4615L15.75 16.6838V6.75H8.25Z"
     fill="#080341"
     id="path1" />
  <path
     style="fill:#080341;fill-opacity:1;stroke-width:1.67979"
     d="M 275.89099,390.13 V 225.57652 H 400 524.10901 V 390.13 554.68347 l -3.77358,-2.41731 c -16.95249,-10.85957 -118.559,-70.08587 -120.2368,-70.08587 -1.68631,0 -104.09742,59.59311 -120.43406,70.08067 l -3.77358,2.42251 z"
     id="path2"
     transform="scale(0.03)" />
  <path
     style="fill:#080341;fill-opacity:1;stroke-width:0.0300471"
     id="path3"
     d="m 8.6838486,7.2348906 c 0.4109616,-0.01638 0.8222769,0.025915 1.2327297,0.045092 0.3906877,0.00936 0.7804967,0.026727 1.1712917,0.021733 0.37702,0.00602 0.753656,8.13e-4 1.130664,-0.0037 0.185555,-0.00832 0.371669,0.012626 0.557096,0.00904 0.191662,-0.0037 0.384839,-0.023374 0.576346,-0.033032 0.466879,-0.019883 0.934379,-0.02621 1.401661,-0.026959 0.352351,0.010256 0.704709,0.00835 1.057077,0.016369 0.184984,0.010844 0.370308,0.013736 0.555563,0.015025 0.03954,2.7e-4 0.08324,0.017879 0.118611,2.1e-4 0.106503,-0.053216 0.07243,-0.1466145 0.0684,-0.2349063 0,0 -0.98086,-0.4736088 -0.98086,-0.4736088 v 0 c 0.01486,0.0229 0.06029,0.067819 0.03384,0.074577 -0.03381,0.00864 -0.06958,0.00564 -0.104428,0.00756 -0.175461,0.00966 -0.351351,0.00977 -0.526799,-9.33e-4 -0.351614,-0.018789 -0.702023,-0.031578 -1.053965,-0.00832 -0.470193,0.0057 -0.940367,0.00934 -1.410385,0.024816 -0.376281,0.010901 -0.752616,0.018471 -1.129032,0.02219 -0.380233,-0.00406 -0.760111,-0.00839 -1.140336,-0.00386 C 9.8549826,6.6787014 9.4685991,6.686682 9.0824994,6.6684141 8.6511387,6.6509319 8.2165323,6.6415029 7.790889,6.5633121 Z" />
  <path
     style="fill:#080341;fill-opacity:1;stroke-width:0.0300471"
     id="path4"
     d="m 15.299697,6.7503201 c -0.0042,0.5194158 -0.104832,1.0320414 -0.206863,1.5395283 -0.06555,0.2202006 -0.03629,0.4433445 -0.02134,0.6677352 0.0073,0.1102029 0.01429,0.2527224 0.02002,0.3638535 0.02068,0.1461468 0.0074,0.3005796 0.03695,0.4457439 0.0236,0.1158816 0.05702,0.2295666 0.08272,0.345 0.06749,0.432451 0.110226,0.870805 0.11532,1.308501 -5.16e-4,0.279142 -0.04927,0.554378 -0.07253,0.831645 -0.04212,0.502095 0.0147,-0.03411 -0.04998,0.532947 -0.03314,0.284906 -0.09233,0.56566 -0.151767,0.845924 -0.01414,0.06668 -0.03323,0.132456 -0.04317,0.199895 -0.02404,0.163067 -0.02075,0.317064 -0.02356,0.481746 0.01983,0.314595 -0.02167,0.629704 -0.01731,0.943968 0.0022,0.156779 0.02051,0.240472 0.04389,0.400837 0.04239,0.336041 0.07647,0.673153 0.112171,1.01 0.02228,0.03098 -0.0025,0.186183 0.03257,0.05705 0,0 0.949912,0.606746 0.949912,0.606746 v 0 c 0.06021,-0.108896 0.03711,-0.07021 -1.8e-4,-0.185068 -0.08406,-0.337936 -0.143034,-0.681476 -0.167,-1.029231 -0.03494,-0.444983 -0.0787,-0.89091 -0.04761,-1.337873 0.03274,-0.512117 0.09648,-1.021917 0.198535,-1.525149 0.01103,-0.05673 0.08597,-0.436209 0.09721,-0.514397 0.04075,-0.283414 0.01483,-0.57285 0.04098,-0.857409 0.0094,-0.203635 0.01823,-0.29948 0.01139,-0.498648 -0.0094,-0.272773 -0.07243,-0.5404 -0.09134,-0.81243 -0.02504,-0.261769 -0.07023,-0.518392 -0.114798,-0.7774565 -0.02736,-0.3381132 -0.05353,-0.6783735 -0.01851,-1.0170675 0.04604,-0.5078391 0.10126,-1.0203858 0.258309,-1.5078342 z" />
  <path
     style="fill:#080341;fill-opacity:1;stroke-width:0.0300471"
     id="path5"
     d="m 15.761615,16.570881 c -0.437706,-0.269833 -0.89062,-0.522309 -1.336563,-0.774319 -0.166543,-0.09412 -0.343799,-0.173776 -0.514519,-0.260106 -0.295907,-0.135779 -0.578028,-0.296432 -0.862991,-0.453044 1.536611,0.978054 0.487172,0.215127 0.124094,-0.01824 -0.480394,-0.393573 -1.058085,-0.574681 -1.585793,-0.870864 -0.12233,-0.05904 -0.06376,-0.03164 -0.175543,-0.08258 0,0 0.858435,0.682383 0.858435,0.682383 v 0 c 0.09999,0.047 0.04725,0.02113 0.157881,0.07832 0.372197,0.201745 1.367478,0.65141 -0.255074,-0.195546 0.575153,0.354176 1.074305,0.81436 1.70953,1.078517 0.278443,0.152581 0.55896,0.300132 0.846455,0.435162 0.05716,0.02889 0.114433,0.05754 0.171473,0.08666 0.0594,0.03032 0.118733,0.06078 0.177843,0.09167 0.700708,0.366124 -1.070558,-0.62501 -0.435601,-0.258816 0.0305,0.01759 0.06136,0.03457 0.09204,0.05185 z" />
  <path
     style="fill:#080341;fill-opacity:1;stroke-width:0.0300471"
     id="path6"
     d="m 11.427065,13.957634 c -0.17097,0.245135 -0.404335,0.431727 -0.64019,0.610359 -0.380921,0.270156 -0.769945,0.528369 -1.1572344,0.789208 -0.391563,0.261941 -0.7991712,0.499604 -1.2266415,0.697749 -0.1707948,0.08761 -0.362262,0.128257 -0.53565,0.209114 -0.091066,0.04247 -0.1419513,0.08286 -0.2256132,0.140249 -0.1415724,0.128827 -0.074535,0.0646 -0.2016825,0.192098 0,0 0.9193878,0.561103 0.9193878,0.561103 v 0 c 0.1120893,-0.120566 0.051284,-0.06247 0.1834152,-0.173225 0.2348559,-0.136239 0.4903344,-0.232978 0.7344345,-0.351379 0.058212,-0.0281 0.1179027,-0.05333 0.1746351,-0.08431 0.053584,-0.02926 0.1039776,-0.06402 0.1558761,-0.09618 0.2922555,-0.181079 0.5778259,-0.372775 0.8745609,-0.546565 0.143598,-0.08602 0.288204,-0.169088 0.426,-0.264365 0.0584,-0.04038 0.113094,-0.08592 0.17098,-0.127038 0.192956,-0.13706 0.39449,-0.26093 0.598246,-0.381122 0.04947,-0.03446 0.101148,-0.06595 0.148395,-0.103395 0.0391,-0.03099 0.07319,-0.06781 0.11004,-0.101443 0.141171,-0.128829 0.279971,-0.263745 0.43782,-0.372037 z" />
  <path
     style="fill:#080341;fill-opacity:1;stroke-width:0.0300471"
     id="path7"
     d="m 8.5493946,16.626717 c -0.023902,-0.355838 0.063467,-0.71149 0.1403715,-1.056884 0.01057,-0.0475 0.024993,-0.0943 0.03171,-0.142495 0.014188,-0.101791 0.0185,-0.311816 0.020966,-0.407646 0.00632,-0.24556 0.00837,-0.49117 0.014512,-0.736738 0.00456,-0.103055 0.011285,-0.262618 0.017162,-0.369182 0.00235,-0.04267 0.00985,-0.08526 0.00805,-0.127957 -0.00278,-0.06566 -0.013823,-0.130711 -0.021756,-0.195948 -0.075305,-0.619308 0.012783,0.150657 -0.057023,-0.469316 C 8.6657661,12.6773 8.608224,12.235555 8.600574,11.790157 8.598345,11.660456 8.603151,11.53073 8.6044386,11.401016 8.6454603,10.769175 8.6823378,10.136992 8.7358101,9.5060079 8.8000692,8.8502973 8.8124802,8.1909153 8.8432134,7.5330885 8.8470666,7.3349964 8.8852062,7.1409048 8.8542204,6.9433491 8.8209432,6.731184 8.7483747,6.5224041 8.6906262,6.3161778 8.6553255,6.1824036 8.61876,6.0491499 8.5771191,5.9172483 c -0.00431,-0.013659 -0.00892,-0.027245 -0.012481,-0.041119 -0.00178,-0.00693 0.00291,-0.018038 -0.00352,-0.021178 C 8.2252308,5.690961 7.8843123,5.5374855 7.5459102,5.3787522 c -0.00809,0.050888 -0.00579,0.024686 -0.00634,0.078652 0,0 1.0122414,0.4834725 1.0122414,0.4834725 v 0 C 8.5344141,5.928015 8.5394286,5.936103 8.5342893,5.9183352 8.1991134,5.7485793 7.8641334,5.5784361 7.5287613,5.4090675 c -0.0072,-0.00364 0.01532,0.00631 0.020978,0.012053 0.01271,0.012909 0.023214,0.02791 0.033231,0.043004 0.08296,0.1250196 0.1342485,0.2659299 0.1764531,0.4091781 0.055957,0.1997838 0.103632,0.3991551 0.1448028,0.6024963 0.010767,0.053176 0.025133,0.1058346 0.031171,0.1597527 0.00695,0.062069 0.013357,0.4000425 0.014306,0.4399875 0.00368,0.6603681 -0.02121,1.320156 -0.082443,1.9778973 -0.0315,0.3208548 -0.080502,0.6431022 -0.099979,0.9649136 -0.019035,0.3145 0.00412,0.631118 -0.015802,0.94566 -0.019676,0.566111 -0.063754,1.138154 0.031354,1.700022 0.0404,0.383073 0.052055,0.767223 0.061376,1.152207 -0.00156,0.421132 -0.015917,0.842293 -0.083878,1.258727 -0.050384,0.351817 -0.1207812,0.698873 -0.2090967,1.043162 z" />
</svg>
