<?xml version="1.0" encoding="UTF-8" standalone="no"?>
<!-- Uploaded to: SVG Repo, www.svgrepo.com, Generator: SVG Repo Mixer Tools -->

<svg
   width="800px"
   height="800px"
   viewBox="0 0 24 24"
   fill="none"
   version="1.1"
   id="svg1"
   sodipodi:docname="lightbulb copy.svg"
   inkscape:version="1.4.3 (0d15f75042, 2025-12-25)"
   xmlns:inkscape="http://www.inkscape.org/namespaces/inkscape"
   xmlns:sodipodi="http://sodipodi.sourceforge.net/DTD/sodipodi-0.dtd"
   xmlns="http://www.w3.org/2000/svg"
   xmlns:svg="http://www.w3.org/2000/svg">
  <defs
     id="defs1" />
  <sodipodi:namedview
     id="namedview1"
     pagecolor="#ffffff"
     bordercolor="#000000"
     borderopacity="0.25"
     inkscape:showpageshadow="2"
     inkscape:pageopacity="0.0"
     inkscape:pagecheckerboard="0"
     inkscape:deskcolor="#d1d1d1"
     inkscape:zoom="0.59625"
     inkscape:cx="399.16143"
     inkscape:cy="400"
     inkscape:window-width="1280"
     inkscape:window-height="728"
     inkscape:window-x="0"
     inkscape:window-y="0"
     inkscape:window-maximized="1"
     inkscape:current-layer="svg1" />
  <path
     fill-rule="evenodd"
     clip-rule="evenodd"
     d="M10.0512 15.75L9.51642 14.2768L9.18821 14.0137C8.15637 13.1865 7.5 11.9204 7.5 10.5C7.5 8.01472 9.51472 6 12 6C14.4853 6 16.5 8.01472 16.5 10.5C16.5 11.9204 15.8436 13.1865 14.8118 14.0137L14.4836 14.2768L13.9488 15.75H10.0512ZM9 17.25H15L15.75 15.184C17.1217 14.0844 18 12.3948 18 10.5C18 7.18629 15.3137 4.5 12 4.5C8.68629 4.5 6 7.18629 6 10.5C6 12.3948 6.87831 14.0844 8.25 15.184L9 17.25ZM14.25 19.5V18H9.75V19.5H14.25Z"
     fill="#080341"
     id="path1"
     style="fill:#080341;fill-opacity:1" />
  <path
     style="fill:#080341;fill-opacity:1;stroke-width:1.67715"
     d="m 333.91332,518.65828 c -1.20112,-2.9979 -5.34239,-14.12998 -9.20281,-24.73794 -6.25086,-17.17663 -7.76614,-19.83781 -13.84701,-24.31866 -11.12522,-8.19792 -31.15414,-30.49825 -38.50521,-42.87194 -34.12349,-57.43834 -26.6744,-128.62543 18.64873,-178.21616 17.6389,-19.29976 45.87811,-36.04402 72.93428,-43.24591 18.91711,-5.03541 53.06886,-5.05396 72.1174,-0.0392 17.6741,4.65295 44.28649,18.07178 57.81801,29.15371 67.1139,54.96436 73.6817,155.32026 14.23076,217.44602 -6.70636,7.0081 -15.25075,15.00615 -18.9875,17.77345 -6.2602,4.63604 -7.49178,6.97435 -15.67192,29.75476 l -8.87782,24.72334 -64.23652,0.0146 -64.23652,0.0146 z"
     id="path33"
     transform="scale(0.03)" />
  <path
     style="fill:#080341;fill-opacity:1;stroke-width:0.03"
     id="path34"
     d="m 11.261132,6.325797 c 0.202069,0.00526 0.403916,0.017467 0.605643,0.030072 0.141471,0.00575 0.283102,0.0049 0.424633,0.00827 0.0915,0.00216 0.182976,0.00105 0.274485,5.04e-4 0.08838,0.00617 0.182285,-0.014071 0.26753,0.012773 0.01223,0.00406 0.0243,0.00865 0.0367,0.012188 0.05406,0.01545 0.03227,0.0011 0.09522,0.035659 0.02551,0.014002 0.09959,0.060206 0.07428,0.045855 -0.8321,-0.4717602 -1.11467,-0.6609759 -0.74136,-0.4149627 0.455275,0.3139206 0.945703,0.5726376 1.433472,0.8314548 0.120892,0.057208 0.193532,0.1035855 0.308692,0.010556 0.08578,-0.055172 0.111417,-0.1356408 0.128003,-0.2318526 0.0051,-0.034821 0.01302,-0.070905 0.0045,-0.1063326 -0.0047,-0.019534 -0.0086,-0.044063 -0.02575,-0.054491 -0.812762,-0.4935477 -0.656419,-0.5271714 -1.132391,-0.5874612 -0.149764,-0.0073 -0.29984,-0.00332 -0.449744,-0.00379 -0.134909,0.00107 -0.277429,-0.028724 -0.398247,-0.089925 -0.339466,-0.2066376 -0.740738,-0.5169756 0.859874,0.5760711 0.007,0.00479 0.0037,0.019369 0.01156,0.022717 0.01694,0.00726 0.03674,0.00332 0.055,0.00582 0.02619,0.00358 0.05222,0.00828 0.07834,0.012421 0.183457,0.047581 0.36373,0.1120386 0.540528,0.1805031 0.151868,0.053038 0.305778,0.099918 0.465377,0.1226775 0.137873,0.021912 0.275308,0.045769 0.414065,0.063785 0.01956,0.00119 0.03925,0.0011 0.05869,0.00358 0.04144,0.00528 0.08479,0.00633 0.123269,0.02258 0.02031,0.00858 0.07305,0.049219 0.05381,0.038457 C 13.977399,6.397531 13.662456,6.1705573 14.00628,6.4148725 c 0.08271,0.073549 0.140916,0.1702998 0.227607,0.2396652 0.06203,0.06297 0.103343,0.1392543 0.164263,0.2037675 0.09432,0.092677 0.157423,0.2061669 0.221911,0.3197262 0.03298,0.080988 0.07944,0.1522641 0.127673,0.2243832 0.06295,0.082872 0.103151,0.1778523 0.127429,0.2783685 0.01718,0.092322 0.06786,0.1744428 0.126331,0.2464953 0.08884,0.063656 0.170066,0.1331979 0.246442,0.2114298 0.08238,0.080669 0.163428,0.1624779 0.241613,0.2473059 0.06966,0.070416 0.09562,0.1578627 0.125583,0.2491389 0.04816,0.1087071 0.06722,0.2244054 0.08236,0.3412134 0.007,0.1228131 0.03009,0.2434884 0.06406,0.3614721 0.03147,0.1116717 0.03968,0.2273748 0.04622,0.342603 0.0046,0.1422432 0.0052,0.2845662 0.0036,0.4268645 -0.0045,0.101892 -0.0048,0.203895 -0.005,0.305866 4.95e-4,0.148805 0.0092,0.297197 0.0098,0.446011 9.57e-4,0.128053 0.01553,0.255513 0.02853,0.382778 0.0096,0.08563 0.03986,0.166212 0.0518,0.251713 0.01032,0.09504 0.0091,0.190786 0.01009,0.286247 0.0098,0.105016 -0.02343,0.202962 -0.05012,0.302686 -0.02563,0.113912 -0.0898,0.213279 -0.136852,0.318901 -0.04189,0.08153 -0.114563,0.140538 -0.181392,0.201198 -0.01556,0.01419 -0.03045,0.02914 -0.04667,0.04256 -0.05641,0.04663 -0.04007,0.02319 -0.09374,0.07491 -0.03951,0.03807 -0.07131,0.08284 -0.109893,0.121864 -0.07227,0.06056 -0.158501,0.09605 -0.245804,0.129017 -0.111766,0.02926 -0.21465,0.08231 -0.320226,0.12779 -0.133844,0.03254 -0.225266,0.126305 -0.32448,0.21407 -0.134655,0.104298 -0.268752,0.208995 -0.397255,0.320844 -0.08035,0.08464 -0.175792,0.14718 -0.249056,0.238387 -0.05551,0.09091 -0.05594,0.201721 -0.05695,0.305151 -0.0011,0.103442 -6.72e-4,0.206948 -0.0034,0.310364 -3.99e-4,0.07336 -6.81e-4,0.146666 4.17e-4,0.220022 0.0013,0.107567 0.0047,0.215079 0.0054,0.322656 -0.0141,0.08764 0.02309,0.19595 -0.01526,0.278892 -0.0042,0.0045 -0.0072,0.01036 -0.01248,0.01349 -0.02146,0.01275 -0.225132,0.04133 -0.25939,0.04872 -0.13325,0.02929 -0.268843,0.04303 -0.404859,0.0498 -0.175559,0.0076 -0.351307,0.0074 -0.526993,0.0081 -0.186051,-8.01e-4 -0.372099,-0.0023 -0.558153,-0.0022 -0.172806,-0.01255 -0.343666,-0.036 -0.514513,-0.0632 -0.192094,-0.05439 -0.387082,-0.09097 -0.584867,-0.116826 -0.150283,-0.02022 -0.30139,-0.01292 -0.447991,-0.0538 -0.151931,-0.03918 -0.308246,-0.05358 -0.4641698,-0.06614 -0.098503,-0.0056 -0.19716,-0.0098 -0.295836,-0.01007 -0.071467,0.0022 -0.1433304,-0.0083 -0.2116854,0.01468 -0.00785,0.0024 -0.050903,0.02191 -0.063526,0.006 -0.00795,-0.01002 -0.018405,-0.04384 -0.0072,-0.03768 0.3146481,0.173034 0.6163032,0.368886 0.9293512,0.544799 0.0124,0.007 -0.01779,-0.02261 -0.02337,-0.0357 -0.0071,-0.01662 -0.0094,-0.03487 -0.01416,-0.05231 -0.02,-0.114592 -0.0148,-0.231138 -0.02732,-0.346504 -0.02008,-0.09213 -0.05458,-0.179457 -0.07409,-0.271953 -0.02491,-0.0985 -0.07904,-0.184458 -0.1320149,-0.269837 -0.06398,-0.08389 -0.1506588,-0.147039 -0.2269056,-0.21924 C 9.6912327,14.366329 9.6241458,14.281151 9.5483637,14.203259 9.465306,14.157345 9.4103256,14.086435 9.3476592,14.018267 9.2884056,13.952187 9.2313012,13.886061 9.1823238,13.811756 9.1250601,13.727762 9.0695487,13.642865 9.0083589,13.561605 8.9371755,13.469542 8.8540476,13.387813 8.7735834,13.304051 8.6995638,13.228481 8.6512401,13.136133 8.5795812,13.058048 8.5156881,13.000415 8.450055,12.940397 8.4177852,12.858973 c -0.028918,-0.08545 -0.024738,-0.178289 -0.02527,-0.267455 -2.1e-4,-0.11407 1.2e-4,-0.228156 -0.0013,-0.342221 9.42e-4,-0.127728 -1.8e-4,-0.255446 5.64e-4,-0.383173 1.41e-5,-0.106141 0.00232,-0.212241 0.00394,-0.318352 3.45e-4,-0.0732 0.00407,-0.146231 4.47e-4,-0.219376 C 8.3787882,11.211917 8.3143642,11.112362 8.253764,11.014069 8.191588,10.901774 8.120558,10.794685 8.0782034,10.672882 c -0.029585,-0.08188 -0.033753,-0.168608 -0.03637,-0.254691 8.91e-4,-0.09381 -5.28e-4,-0.187597 -7.2e-4,-0.281426 1.8e-4,-0.0873 0.00302,-0.1745693 0.00373,-0.2618624 -0.00221,-0.095633 -0.00249,-0.1912479 -0.00328,-0.2869083 -0.00646,-0.097675 0.019627,-0.1922415 0.034777,-0.2877627 0.018036,-0.093453 0.065109,-0.178929 0.1086318,-0.262716 C 8.2244739,8.9544981 8.2766403,8.8776426 8.3384673,8.80971 8.4169344,8.7254775 8.500815,8.6504205 8.5703178,8.5577214 8.6612409,8.4619344 8.7286905,8.3487975 8.8294785,8.2626648 8.8900773,8.1998379 8.9492979,8.1366222 9.008304,8.0721915 9.0658971,8.0106546 9.1083147,7.9361274 9.1544418,7.8653931 9.1981608,7.76724 9.2715087,7.6892634 9.3312648,7.6011765 9.4014204,7.5095958 9.4440492,7.400331 9.5099883,7.3064328 9.5908557,7.2367932 9.6629178,7.1581305 9.7360578,7.0805877 9.8334588,6.9576078 9.957585,6.8704206 10.083409,6.7798455 10.249833,6.6619548 10.427223,6.557523 10.608184,6.4632648 10.733578,6.386823 10.872757,6.3408591 11.01174,6.2966586 c 0.122694,-0.055054 0.24938,-0.098877 0.37715,-0.140793 0.129503,-0.038639 0.265754,-0.042102 0.399856,-0.045688 0.149576,-0.014378 0.290965,0.015631 0.428578,0.072414 0.02176,0.010214 0.04361,0.020216 0.06527,0.030641 0.04764,0.022938 0.09685,0.042658 0.143826,0.066923 0.02177,0.011242 0.0841,0.05028 0.06283,0.038124 -0.870087,-0.4972752 -1.173716,-0.692697 -0.832384,-0.4743447 0.04261,0.024095 0.08015,0.055525 0.119204,0.084731 0,0 1.03673,0.4089276 1.03673,0.4089276 v 0 C 12.76932,6.3084305 12.72429,6.2811305 12.687156,6.2436595 12.253097,5.9775784 11.825768,5.685466 11.346909,5.5063828 c -0.148601,-0.038564 -0.297759,-0.053264 -0.451326,-0.03934 -0.142378,0.00828 -0.286572,0.017981 -0.42101,0.069965 -0.126817,0.046124 -0.253616,0.092128 -0.380005,0.1392888 C 9.9562848,5.728941 9.8213043,5.787465 9.6965688,5.8683525 9.5164659,5.9719371 9.333702,6.0724848 9.1645908,6.1935993 9.0284187,6.2836656 8.8995699,6.3802011 8.7920796,6.5044716 8.7116268,6.586074 8.6276088,6.6639408 8.5476414,6.7456638 8.4908352,6.8435175 8.4484419,6.9502473 8.3778462,7.0401399 8.3158242,7.127358 8.2375608,7.2030477 8.1948525,7.3032072 8.1500895,7.3689681 8.1049764,7.4346276 8.0534901,7.4951883 7.9990161,7.5592485 7.9372011,7.61637 7.883286,7.6809468 7.7919195,7.780551 7.7177106,7.8934452 7.6254069,7.9923579 7.5506691,8.0775603 7.4610441,8.1466938 7.3875924,8.2331181 7.3193307,8.3080653 7.2660348,8.3947737 7.2227259,8.4863979 7.1715351,8.5805559 7.1201166,8.6770218 7.0909116,8.780463 c -0.01264,0.1012521 -0.0379,0.201564 -0.038133,0.3037212 -7.8e-4,0.094513 -0.00102,0.1889793 -0.00331,0.2834619 6e-4,0.088237 0.00317,0.1764657 0.00269,0.2647086 -9.66e-4,0.094091 -0.0042,0.1881033 -0.00244,0.2822043 2.49e-5,0.095934 -0.00155,0.193251 0.023036,0.286781 0.042883,0.129172 0.1005699,0.248208 0.1751508,0.36239 0.045312,0.09263 0.1158081,0.173844 0.1426296,0.274783 0.025765,0.06208 0.00401,0.137662 0.012494,0.20346 0.00163,0.107442 0.00394,0.214874 0.00395,0.322346 6.9e-4,0.127707 -4.59e-4,0.255406 -9e-5,0.383116 -0.00204,0.113208 -0.0028,0.226437 -0.00427,0.339653 -6.66e-4,0.09823 -0.00221,0.196609 0.0044,0.294684 0.025024,0.101319 0.066533,0.187747 0.1482693,0.257195 0.098486,0.07455 0.1318803,0.13782 0.1949481,0.240455 0.08108,0.07995 0.1610085,0.161207 0.237027,0.246013 0.064654,0.076 0.1220925,0.155621 0.1746969,0.23996 0.050419,0.07461 0.090524,0.15913 0.1614051,0.216797 0.097719,0.132522 -0.041814,-0.05186 0.061328,0.06917 0.042327,0.04967 0.063178,0.114627 0.1297722,0.140325 0.095273,0.05041 0.1611636,0.141982 0.2253867,0.226393 0.061346,0.08397 0.1436913,0.152532 0.2274978,0.213032 0.063763,0.06393 0.1101417,0.149379 0.1447548,0.232101 0.03724,0.08238 0.032339,0.180894 0.083463,0.259452 0.027404,0.114773 0.021957,0.23096 0.030676,0.348211 0.00183,0.02075 0.00374,0.0415 0.00549,0.06226 0.00172,0.02032 -0.011904,0.04945 0.00492,0.061 1.2330931,0.846091 0.5901963,0.66663 1.0796511,0.578864 0.06666,0.0033 0.133399,0.0011 0.200103,0.0016 0.09285,3.78e-4 0.185801,-1.8e-4 0.27839,0.0083 0.153453,0.01333 0.304903,0.03796 0.454281,0.07623 0.146873,0.02288 0.296,0.01857 0.443211,0.04018 0.199189,0.02915 0.392298,0.08223 0.589179,0.122611 0.172935,0.02694 0.347907,0.04104 0.522723,0.0481 0.18453,3.51e-4 0.369058,-6.6e-4 0.553587,-0.0012 0.181713,7.23e-4 0.363587,0.0028 0.5452,-0.0037 0.136936,-0.0108 0.271135,-0.0388 0.405579,-0.06633 0.121763,-0.02079 0.278896,-0.02009 0.34673,-0.14046 0.046,-0.103983 0.02185,-0.215431 0.02545,-0.326533 7.14e-4,-0.105795 0.0042,-0.211524 0.0053,-0.31731 9.72e-4,-0.07372 3.6e-4,-0.147384 -10e-4,-0.221095 -0.004,-0.103568 -0.0059,-0.207314 -0.0048,-0.310949 0.0027,-0.07951 -0.0035,-0.166585 0.03077,-0.240126 0.06117,-0.08752 0.154005,-0.146168 0.221495,-0.228766 0.127212,-0.112391 0.259551,-0.218458 0.397093,-0.318016 0.09674,-0.07682 0.191919,-0.148022 0.312104,-0.184518 0.105804,-0.04664 0.215275,-0.08256 0.323611,-0.122716 0.09851,-0.04355 0.196045,-0.08932 0.271581,-0.16886 0.07513,-0.08384 0.149529,-0.165806 0.241598,-0.232242 0.08229,-0.07023 0.165423,-0.140026 0.208258,-0.242597 0.04577,-0.112114 0.111175,-0.215966 0.143608,-0.333583 0.0281,-0.107332 0.07106,-0.213447 0.06878,-0.326043 -9e-5,-0.09902 -0.0037,-0.197887 -0.0085,-0.296793 -0.0049,-0.08621 -0.0087,-0.172605 -0.04925,-0.251108 -0.01319,-0.128287 -0.04253,-0.254343 -0.05387,-0.382939 5.19e-4,-0.145455 0.0093,-0.290457 0.0099,-0.4359 6e-5,-0.103463 2.2e-5,-0.206955 -0.004,-0.310359 -0.0011,-0.143127 7.26e-4,-0.286243 -5.85e-4,-0.429366 -7.89e-4,-0.12175 -0.0039,-0.2440493 -0.03171,-0.3632183 -0.02729,-0.1146219 -0.07545,-0.2248587 -0.07123,-0.3455676 -0.0089,-0.1237215 -0.02979,-0.248904 -0.07058,-0.366177 -0.03839,-0.095165 -0.03978,-0.2035728 -0.111032,-0.283725 C 16.439639,8.7263231 16.356565,8.6403539 16.269053,8.5646957 16.196003,8.4858627 16.129848,8.3968646 16.034258,8.3441561 15.958238,8.3050381 15.917118,8.2351829 15.8767,8.1621305 15.8515,8.0538557 15.8248,7.9459145 15.769387,7.8482348 c -0.01546,-0.022245 -0.02761,-0.0467 -0.04347,-0.068662 -0.03472,-0.048089 -0.08123,-0.087376 -0.09452,-0.14892 C 15.568207,7.513195 15.505305,7.3931599 15.41889,7.2907183 15.39009,7.2530583 15.35311,7.2260033 15.3243,7.1896243 15.29968,7.1585393 15.30599,7.1504303 15.2868,7.1165293 15.2808,7.1058433 15.27247,7.0965903 15.2653,7.0866203 15.19718,6.9921447 15.073802,6.9416598 15.023404,6.8293446 14.684361,6.4559961 14.203275,6.1882122 13.703342,6.1462047 13.567996,6.1304781 13.434769,6.1019571 13.299935,6.0826344 13.147342,6.0488904 12.997968,6.0022503 12.851074,5.9489826 12.667982,5.8860885 12.485956,5.8138395 12.292829,5.7883008 c -0.714988,-0.047368 0.302261,0.5745834 0.747026,0.7191816 0.13609,0.033909 0.272665,0.063677 0.414236,0.05256 0.148408,-7.68e-4 0.298268,-0.00261 0.444832,0.023994 0.371621,0.084558 0.803058,0.4842858 -0.784659,-0.4938411 -0.02124,-0.013085 0.06254,-0.00791 0.07342,0.014536 0.006,0.012413 -0.0018,0.027528 -0.0027,0.041292 -0.0089,0.066908 -0.01753,0.1118997 -0.08251,0.1435746 -0.08118,0.00464 -0.156011,-0.065517 -0.229285,-0.090406 -0.06218,-0.030973 -0.0713,-0.034918 -0.133736,-0.06853 -0.02606,-0.014027 -0.103359,-0.05768 -0.07781,-0.04274 1.529426,0.894471 0.962377,0.5766852 0.643124,0.3630207 C 12.895915,6.1648125 13.152173,6.3403575 12.188262,5.7873 c -0.0749,-0.042974 -0.161465,-0.068667 -0.24708,-0.077208 -0.0917,6e-5 -0.183384,0.00129 -0.275086,9.51e-4 -0.09064,-3.57e-4 -0.181238,-0.00113 -0.271867,9.54e-4 -0.137065,0.00286 -0.274161,5.58e-4 -0.411177,-0.00372 -0.204998,-0.00359 -0.410953,-0.012121 -0.613304,-0.047198 z" />
</svg>
