<svg xmlns="http://www.w3.org/2000/svg" id="logo-svg" width="200" height="200" viewBox="0 0 200 200" style="overflow:visible"><defs><linearGradient id="gradient" x1="0%" y1="0%" x2="100%" y2="100%"><stop offset="0%" style="stop-color: rgb(162, 162, 208); stop-opacity: 1;"/><stop offset="100%" style="stop-color:#FFFFFF;stop-opacity:1"/></linearGradient><filter id="shadow" x="-100%" y="-100%" width="300%" height="300%" filterUnits="objectBoundingBox"/></defs><rect x="0" y="0" width="200" height="200" fill="#a2a2d0" rx="20" ry="20"/><g transform="translate(36 36)"><svg xmlns="http://www.w3.org/2000/svg" width="128" height="128" viewBox="0 0 24 24" fill="#ffffff" stroke="#FFFFFF" stroke-width="1.5" stroke-linecap="round" stroke-linejoin="round" class="lucide lucide-file-terminal" fill-opacity="0"><path d="M15 2H6a2 2 0 0 0-2 2v16a2 2 0 0 0 2 2h12a2 2 0 0 0 2-2V7Z"/><path d="M14 2v4a2 2 0 0 0 2 2h4"/><path d="m8 16 2-2-2-2"/><path d="M12 18h4"/></svg></g></svg>